<?xml version="1.0" standalone="yes"?>

<svg version="1.1" viewBox="0.0 0.0 192.0 144.0" fill="none" stroke="none" stroke-linecap="square" stroke-miterlimit="10" xmlns="http://www.w3.org/2000/svg" xmlns:xlink="http://www.w3.org/1999/xlink"><clipPath id="p.0"><path d="m0 0l192.0 0l0 144.0l-192.0 0l0 -144.0z" clip-rule="nonzero"></path></clipPath><g clip-path="url(#p.0)"><path fill="#000000" fill-opacity="0.0" d="m0 0l192.0 0l0 144.0l-192.0 0z" fill-rule="nonzero"></path><path fill="#000000" fill-opacity="0.0" d="m3.9553807 40.879265l128.44095 0l35.338577 35.338585l-35.338577 35.338577l-128.44095 0l35.338585 -35.338577z" fill-rule="nonzero"></path><path stroke="#ffffff" stroke-width="3.0" stroke-linejoin="round" stroke-linecap="butt" d="m3.9553807 40.879265l128.44095 0l35.338577 35.338585l-35.338577 35.338577l-128.44095 0l35.338585 -35.338577z" fill-rule="nonzero"></path><path fill="#ffffff" d="m49.262714 73.017845l0 -9.3125l1.828125 0l3.8125 6.21875l0 -6.21875l1.734375 0l0 9.3125l-1.875 0l-3.765625 -6.0625l0 6.0625l-1.734375 0zm9.609528 0l0 -9.3125l6.890621 0l0 1.578125l-5.015621 0l0 2.0625l4.671871 0l0 1.578125l-4.671871 0l0 2.53125l5.203121 0l0 1.5625l-7.078121 0zm7.9366264 0l3.1875 -4.859375l-2.890625 -4.453125l2.203125 0l1.859375 3.0l1.828125 -3.0l2.171875 0l-2.890625 4.53125l3.1875 4.78125l-2.265625 0l-2.0625 -3.21875l-2.078125 3.21875l-2.25 0zm11.93663 0l0 -7.734375l-2.765625 0l0 -1.578125l7.390625 0l0 1.578125l-2.75 0l0 7.734375l-1.875 0z" fill-rule="nonzero"></path><path fill="#ffffff" d="m56.731464 87.830345q0.6875 0.5 1.5 0.796875l-0.6875 1.328125q-0.421875 -0.125 -0.828125 -0.359375q-0.09375 -0.03125 -1.25 -0.8125q-0.921875 0.390625 -2.03125 0.390625q-2.140625 0 -3.359375 -1.265625q-1.21875 -1.265625 -1.21875 -3.546875q0 -2.28125 1.21875 -3.546875q1.21875 -1.265625 3.3125 -1.265625q2.0625 0 3.265625 1.265625q1.21875 1.265625 1.21875 3.546875q0 1.203125 -0.328125 2.125q-0.25 0.703125 -0.8125 1.34375zm-1.515625 -1.046875q0.359375 -0.4375 0.546875 -1.03125q0.1875 -0.609375 0.1875 -1.390625q0 -1.609375 -0.71875 -2.40625q-0.703125 -0.796875 -1.859375 -0.796875q-1.15625 0 -1.875 0.796875q-0.703125 0.796875 -0.703125 2.40625q0 1.640625 0.703125 2.453125q0.71875 0.796875 1.8125 0.796875q0.40625 0 0.78125 -0.125q-0.578125 -0.375 -1.171875 -0.59375l0.53125 -1.0625q0.921875 0.3125 1.765625 0.953125zm4.382675 -7.078125l1.875 0l0 5.046875q0 1.203125 0.0625 1.5625q0.125 0.5625 0.578125 0.90625q0.453125 0.34375 1.25 0.34375q0.7968712 0 1.2031212 -0.3125q0.40625 -0.328125 0.484375 -0.796875q0.078125 -0.484375 0.078125 -1.59375l0 -5.15625l1.890625 0l0 4.890625q0 1.671875 -0.15625 2.375q-0.15625 0.6875 -0.5625 1.171875q-0.40625 0.46875 -1.09375 0.75q-0.6875 0.28125 -1.7968712 0.28125q-1.328125 0 -2.015625 -0.296875q-0.6875 -0.3125 -1.09375 -0.796875q-0.390625 -0.5 -0.515625 -1.046875q-0.1875 -0.796875 -0.1875 -2.359375l0 -4.96875zm9.640774 9.3125l0 -9.3125l6.890625 0l0 1.578125l-5.015625 0l0 2.0625l4.671875 0l0 1.578125l-4.671875 0l0 2.53125l5.203125 0l0 1.5625l-7.078125 0zm8.40538 -3.03125l1.828125 -0.171875q0.171875 0.921875 0.671875 1.359375q0.5 0.421875 1.359375 0.421875q0.90625 0 1.359375 -0.375q0.46875 -0.390625 0.46875 -0.90625q0 -0.328125 -0.203125 -0.5625q-0.1875 -0.234375 -0.671875 -0.40625q-0.328125 -0.109375 -1.5 -0.40625q-1.515625 -0.375 -2.125 -0.921875q-0.84375 -0.765625 -0.84375 -1.875q0 -0.703125 0.390625 -1.3125q0.40625 -0.625 1.15625 -0.953125q0.765625 -0.328125 1.84375 -0.328125q1.75 0 2.625 0.78125q0.890625 0.765625 0.9375 2.046875l-1.875 0.078125q-0.125 -0.71875 -0.515625 -1.03125q-0.390625 -0.3125 -1.1875 -0.3125q-0.828125 0 -1.28125 0.328125q-0.296875 0.21875 -0.296875 0.578125q0 0.328125 0.265625 0.5625q0.359375 0.3125 1.734375 0.640625q1.375 0.3125 2.03125 0.65625q0.65625 0.34375 1.015625 0.953125q0.375 0.59375 0.375 1.484375q0 0.796875 -0.453125 1.5q-0.4375 0.6875 -1.25 1.03125q-0.8125 0.34375 -2.015625 0.34375q-1.765625 0 -2.71875 -0.8125q-0.9375 -0.828125 -1.125 -2.390625zm11.46788 3.03125l0 -7.734375l-2.765625 0l0 -1.578125l7.390625 0l0 1.578125l-2.75 0l0 7.734375l-1.875 0zm5.9851074 0l0 -9.3125l1.875 0l0 9.3125l-1.875 0zm3.3748627 -4.59375q0 -1.421875 0.421875 -2.390625q0.328125 -0.703125 0.875 -1.265625q0.546875 -0.578125 1.203125 -0.84375q0.859375 -0.375 2.0 -0.375q2.0625 0 3.296875 1.28125q1.234375 1.28125 1.234375 3.546875q0 2.25 -1.234375 3.53125q-1.21875 1.265625 -3.265625 1.265625q-2.078125 0 -3.3125 -1.265625q-1.21875 -1.265625 -1.21875 -3.484375zm1.9375 -0.0625q0 1.578125 0.734375 2.390625q0.734375 0.8125 1.84375 0.8125q1.125 0 1.84375 -0.796875q0.734375 -0.8125 0.734375 -2.4375q0 -1.59375 -0.703125 -2.375q-0.703125 -0.796875 -1.875 -0.796875q-1.15625 0 -1.875 0.796875q-0.703125 0.796875 -0.703125 2.40625zm8.8358 4.65625l0 -9.3125l1.828125 0l3.8125 6.21875l0 -6.21875l1.734375 0l0 9.3125l-1.875 0l-3.765625 -6.0625l0 6.0625l-1.734375 0z" fill-rule="nonzero"></path></g></svg>

