<?xml version="1.0" standalone="yes"?>

<svg version="1.1" viewBox="0.0 0.0 288.0 105.60104986876641" fill="none" stroke="none" stroke-linecap="square" stroke-miterlimit="10" xmlns="http://www.w3.org/2000/svg" xmlns:xlink="http://www.w3.org/1999/xlink"><clipPath id="p.0"><path d="m0 0l288.0 0l0 105.60105l-288.0 0l0 -105.60105z" clip-rule="nonzero"></path></clipPath><g clip-path="url(#p.0)"><path fill="#000000" fill-opacity="0.0" d="m0 0l288.0 0l0 105.60105l-288.0 0z" fill-rule="nonzero"></path><path fill="#000000" fill-opacity="0.0" d="m226.20735 52.29659l50.99211 -1.6063004" fill-rule="nonzero"></path><path stroke="#ffffff" stroke-width="12.0" stroke-linejoin="round" stroke-linecap="butt" d="m226.20735 52.29659l9.887466 -0.31146622" fill-rule="evenodd"></path><path fill="#ffffff" stroke="#ffffff" stroke-width="12.0" stroke-linecap="butt" d="m236.09482 51.985123l-13.063416 13.913208l36.63394 -14.655701l-37.48372 -12.320927z" fill-rule="evenodd"></path><path fill="#000000" fill-opacity="0.0" d="m-30.800526 12.296588l278.01575 0l0 81.00787l-278.01575 0z" fill-rule="nonzero"></path><path fill="#ffffff" d="m11.978833 61.340527l0 -17.1875l3.375 0l7.031249 11.484375l0 -11.484375l3.21875 0l0 17.1875l-3.46875 0l-6.937499 -11.203125l0 11.203125l-3.21875 0zm17.300781 0l0 -17.1875l12.734375 0l0 2.90625l-9.265625 0l0 3.8125l8.625 0l0 2.890625l-8.625 0l0 4.6875l9.59375 0l0 2.890625l-13.0625 0zm14.2578125 0l5.875 -8.96875l-5.328125 -8.21875l4.0625 0l3.4375 5.53125l3.375 -5.53125l4.03125 0l-5.34375 8.34375l5.859375 8.84375l-4.171875 0l-3.8125 -5.9375l-3.828125 5.9375l-4.15625 0zm21.617191 0l0 -14.28125l-5.093754 0l0 -2.90625l13.656254 0l0 2.90625l-5.09375 0l0 14.28125l-3.46875 0zm31.296875 -2.1875q1.28125 0.921875 2.78125 1.453125l-1.28125 2.453125q-0.78125 -0.234375 -1.53125 -0.640625q-0.171875 -0.078125 -2.3125 -1.53125q-1.6875 0.75 -3.734375 0.75q-3.96875 0 -6.21875 -2.328125q-2.234375 -2.34375 -2.234375 -6.5625q0 -4.203125 2.25 -6.53125q2.25 -2.34375 6.109375 -2.34375q3.8125 0 6.046875 2.34375q2.25 2.328125 2.25 6.53125q0 2.234375 -0.625 3.921875q-0.46875 1.28125 -1.5 2.484375zm-2.796875 -1.953125q0.671875 -0.78125 1.0 -1.890625q0.34375 -1.125 0.34375 -2.5625q0 -2.96875 -1.3125 -4.4375q-1.3125 -1.484375 -3.4375 -1.484375q-2.125 0 -3.4375 1.484375q-1.3125 1.46875 -1.3125 4.4375q0 3.015625 1.3125 4.515625q1.3125 1.484375 3.328125 1.484375q0.75 0 1.421875 -0.25q-1.046875 -0.6875 -2.140625 -1.078125l0.96875 -1.96875q1.71875 0.578125 3.265625 1.75zm7.6054688 -13.046875l3.46875 0l0 9.3125q0 2.21875 0.140625 2.875q0.21875 1.046875 1.046875 1.6875q0.84375 0.640625 2.296875 0.640625q1.484375 0 2.234375 -0.59375q0.75 -0.609375 0.890625 -1.484375q0.15625 -0.890625 0.15625 -2.921875l0 -9.515625l3.46875 0l0 9.03125q0 3.09375 -0.28125 4.375q-0.28125 1.265625 -1.046875 2.15625q-0.75 0.875 -2.015625 1.40625q-1.265625 0.515625 -3.296875 0.515625q-2.46875 0 -3.734375 -0.5625q-1.265625 -0.578125 -2.015625 -1.484375q-0.734375 -0.90625 -0.96875 -1.90625q-0.34375 -1.484375 -0.34375 -4.359375l0 -9.171875zm17.363281 17.1875l0 -17.1875l12.734375 0l0 2.90625l-9.265625 0l0 3.8125l8.625 0l0 2.890625l-8.625 0l0 4.6875l9.59375 0l0 2.890625l-13.0625 0zm15.1328125 -5.59375l3.375 -0.328125q0.296875 1.703125 1.21875 2.5q0.9375 0.796875 2.53125 0.796875q1.671875 0 2.515625 -0.703125q0.859375 -0.71875 0.859375 -1.671875q0 -0.609375 -0.359375 -1.03125q-0.359375 -0.421875 -1.25 -0.75q-0.609375 -0.203125 -2.78125 -0.75q-2.78125 -0.6875 -3.90625 -1.6875q-1.59375 -1.421875 -1.59375 -3.46875q0 -1.3125 0.75 -2.453125q0.75 -1.140625 2.140625 -1.734375q1.40625 -0.59375 3.390625 -0.59375q3.234375 0 4.859375 1.421875q1.640625 1.40625 1.71875 3.78125l-3.46875 0.140625q-0.21875 -1.3125 -0.953125 -1.890625q-0.734375 -0.59375 -2.203125 -0.59375q-1.5 0 -2.359375 0.625q-0.546875 0.40625 -0.546875 1.0625q0 0.609375 0.515625 1.046875q0.65625 0.546875 3.1875 1.15625q2.53125 0.59375 3.734375 1.234375q1.21875 0.640625 1.90625 1.75q0.6875 1.09375 0.6875 2.734375q0 1.46875 -0.828125 2.765625q-0.8125 1.28125 -2.3125 1.921875q-1.5 0.625 -3.75 0.625q-3.25 0 -5.0 -1.5q-1.75 -1.515625 -2.078125 -4.40625zm20.742188 5.59375l0 -14.28125l-5.09375 0l0 -2.90625l13.65625 0l0 2.90625l-5.09375 0l0 14.28125l-3.46875 0zm10.691406 0l0 -17.1875l3.46875 0l0 17.1875l-3.46875 0zm6.0742188 -8.484375q0 -2.625 0.78125 -4.40625q0.59375 -1.3125 1.59375 -2.359375q1.015625 -1.046875 2.234375 -1.546875q1.59375 -0.671875 3.703125 -0.671875q3.796875 0 6.0625 2.359375q2.28125 2.34375 2.28125 6.546875q0 4.15625 -2.265625 6.515625q-2.25 2.34375 -6.03125 2.34375q-3.84375 0 -6.109375 -2.34375q-2.25 -2.34375 -2.25 -6.4375zm3.578125 -0.125q0 2.921875 1.34375 4.4375q1.34375 1.5 3.421875 1.5q2.078125 0 3.40625 -1.484375q1.328125 -1.5 1.328125 -4.5q0 -2.953125 -1.296875 -4.40625q-1.296875 -1.453125 -3.4375 -1.453125q-2.140625 0 -3.453125 1.484375q-1.3125 1.46875 -1.3125 4.421875zm15.824219 8.609375l0 -17.1875l3.375 0l7.03125 11.484375l0 -11.484375l3.21875 0l0 17.1875l-3.46875 0l-6.9375 -11.203125l0 11.203125l-3.21875 0z" fill-rule="nonzero"></path></g></svg>

